<svg width="263" height="54" viewBox="0 0 263 54" fill="none" xmlns="http://www.w3.org/2000/svg">
<g clip-path="url(#clip0_37_4091)">
<path d="M17.8435 0L22.9015 8.81172H4.96978L0.00878906 0H17.8435ZM33.0692 8.81172H22.9646L39.6087 41.7992V21.6904L33.0692 8.81172ZM42.653 6.10042V41.6862H50.8385V14.3473H59.0242V41.6862H67.2098V14.3473H75.3955V41.6862H83.5811V6.10042H42.653ZM95.165 20.5335V25.8183H103.671V30.728H95.165V36.4579H104.778V41.5551H88.8082V15.4341H104.778V20.5335H95.165ZM126.214 23.6967C125.756 22.8416 125.048 22.1471 124.185 21.7062C123.221 21.2319 122.157 20.9992 121.084 21.0283C119.027 21.0283 117.38 21.7062 116.143 23.0618C114.906 24.4174 114.287 26.225 114.287 28.4844C114.287 30.8944 114.937 32.7736 116.236 34.1217C117.535 35.4698 119.323 36.1476 121.603 36.1551C123.163 36.1551 124.481 35.7582 125.558 34.9644C126.634 34.1706 127.42 33.0288 127.917 31.5391H119.857V26.8508H133.674V32.7682C133.183 34.3918 132.368 35.8985 131.279 37.1967C130.106 38.5976 128.644 39.7276 126.994 40.509C125.162 41.3732 123.156 41.8061 121.131 41.7743C118.556 41.7743 116.26 41.2095 114.242 40.0798C112.26 38.9865 110.624 37.3553 109.525 35.3734C108.399 33.364 107.836 31.0692 107.836 28.4889C107.836 25.9087 108.399 23.6079 109.525 21.5865C110.617 19.5996 112.246 17.9614 114.224 16.8598C116.23 15.7331 118.52 15.1689 121.095 15.1674C124.213 15.1674 126.844 15.9206 128.988 17.4268C131.131 18.9331 132.549 21.0299 133.241 23.7171L126.214 23.6967ZM153.436 36.9436H143.706L142.146 41.5574H135.498L144.933 15.4341H152.286L161.719 41.5574H154.997L153.436 36.9436ZM151.801 32.0317L148.572 22.4676L145.368 32.0317H151.801ZM51.1092 49.5941C51.1092 50.4655 50.8513 51.3173 50.3682 52.0419C49.885 52.7664 49.1982 53.3311 48.3947 53.6646C47.5912 53.9981 46.7071 54.0854 45.8541 53.9154C45.0011 53.7454 44.2176 53.3257 43.6026 52.7095C42.9877 52.0934 42.5688 51.3083 42.3992 50.4537C42.2295 49.599 42.3166 48.7131 42.6494 47.9081C42.9823 47.103 43.5459 46.4149 44.269 45.9308C44.9921 45.4466 45.8423 45.1883 46.7119 45.1883C47.8782 45.1883 48.9966 45.6525 49.8213 46.4787C50.6459 47.305 51.1092 48.4256 51.1092 49.5941ZM83.5811 49.5941C83.5811 50.4655 83.3233 51.3173 82.8401 52.0419C82.3569 52.7664 81.6701 53.3311 80.8666 53.6646C80.0631 53.9981 79.179 54.0854 78.326 53.9154C77.473 53.7454 76.6895 53.3257 76.0746 52.7095C75.4596 52.0934 75.0408 51.3083 74.8711 50.4537C74.7014 49.599 74.7885 48.7131 75.1214 47.9081C75.4542 47.103 76.0178 46.4149 76.7409 45.9308C77.464 45.4466 78.3142 45.1883 79.1839 45.1883C80.3501 45.1883 81.4685 45.6525 82.2932 46.4787C83.1178 47.305 83.5811 48.4256 83.5811 49.5941Z" fill="url(#paint0_linear_37_4091)"/>
<path d="M168.256 40.7576C166.818 40.1921 165.565 39.2388 164.635 38.0034C163.733 36.7878 163.256 35.3236 163.205 33.611H169.97C170.069 34.5795 170.404 35.3177 170.973 35.8253C171.593 36.3533 172.389 36.6262 173.201 36.5889C174.143 36.5889 174.885 36.3721 175.429 35.9383C175.699 35.7235 175.914 35.4476 176.056 35.1333C176.198 34.8191 176.264 34.4754 176.248 34.1307C176.254 33.8333 176.198 33.538 176.084 33.2634C175.97 32.9888 175.8 32.7409 175.585 32.5356C175.12 32.0938 174.578 31.7409 173.986 31.494C173.107 31.1341 172.208 30.8233 171.294 30.5631C169.882 30.1465 168.504 29.6239 167.172 28.9996C166.085 28.4612 165.142 27.6703 164.423 26.6928C163.656 25.676 163.273 24.349 163.273 22.7116C163.273 20.2805 164.151 18.3766 165.909 16.9999C167.666 15.6231 169.957 14.9339 172.78 14.9324C175.653 14.9324 177.968 15.6216 179.725 16.9999C181.483 18.3781 182.424 20.2941 182.548 22.7478H175.677C175.671 22.3693 175.584 21.9964 175.424 21.6534C175.264 21.3105 175.034 21.0052 174.748 20.7573C174.13 20.2571 173.351 19.9994 172.556 20.032C171.883 19.9991 171.222 20.2181 170.701 20.6465C170.229 21.0562 169.993 21.6452 169.995 22.4134C169.995 23.2569 170.391 23.9144 171.183 24.3859C171.975 24.8574 173.214 25.3657 174.897 25.911C176.299 26.3686 177.67 26.9158 179.001 27.5491C180.072 28.0828 181.005 28.8558 181.73 29.8085C182.497 30.8026 182.881 32.083 182.882 33.6495C182.898 35.0813 182.507 36.488 181.755 37.7051C180.951 38.962 179.812 39.968 178.467 40.6084C177.031 41.3269 175.335 41.6862 173.38 41.6862C171.628 41.7146 169.887 41.3992 168.256 40.7576Z" fill="#4E4956"/>
<path d="M209.37 15.303V41.4264H203.017V30.6716H193.138V41.4264H186.788V15.303H193.138V25.5314H203.017V15.2985L209.37 15.303Z" fill="#4E4956"/>
<path d="M219.526 39.9758C217.501 38.8529 215.82 37.1995 214.662 35.1926C213.481 33.0884 212.861 30.7152 212.861 28.3014C212.861 25.8876 213.481 23.5144 214.662 21.4101C215.825 19.4122 217.505 17.7665 219.526 16.6474C221.596 15.5234 223.913 14.9346 226.267 14.9346C228.621 14.9346 230.938 15.5234 233.008 16.6474C235.023 17.7615 236.693 19.4091 237.836 21.4101C238.995 23.522 239.601 25.8937 239.598 28.3038C239.595 30.7139 238.983 33.0838 237.818 35.1926C236.673 37.1971 235.004 38.8508 232.99 39.9758C230.923 41.0983 228.609 41.6861 226.258 41.6861C223.907 41.6861 221.593 41.0983 219.526 39.9758ZM231.263 33.7985C232.512 32.4082 233.138 30.5721 233.139 28.2901C233.139 25.984 232.514 24.1418 231.263 22.7636C230.012 21.3853 228.347 20.6969 226.268 20.6985C224.163 20.6985 222.486 21.3808 221.235 22.7455C219.984 24.1102 219.359 25.9584 219.359 28.2901C219.359 30.5962 219.984 32.4384 221.235 33.8166C222.486 35.1949 224.163 35.8833 226.268 35.8818C228.347 35.8818 230.012 35.1873 231.263 33.7985Z" fill="#4E4956"/>
<path d="M261.951 27.8631C261.206 29.1653 260.096 30.2197 258.758 30.8953C257.322 31.665 255.54 32.0498 253.409 32.0498H249.472V41.4264H243.122V15.303H253.409C255.488 15.303 257.247 15.663 258.684 16.383C260.036 17.0245 261.163 18.0622 261.915 19.3587C262.649 20.6903 263.02 22.1919 262.991 23.7126C263.006 25.1627 262.648 26.5922 261.951 27.8631ZM255.637 26.1324C256.233 25.5608 256.539 24.7564 256.539 23.7126C256.539 22.6687 256.242 21.8666 255.637 21.295C255.033 20.7233 254.14 20.4387 252.931 20.4387H249.477V26.991H252.931C254.146 26.9894 255.048 26.7033 255.637 26.1324Z" fill="#4E4956"/>
</g>
<defs>
<linearGradient id="paint0_linear_37_4091" x1="-0.000230911" y1="27" x2="161.719" y2="27" gradientUnits="userSpaceOnUse">
<stop stop-color="#8974F7"/>
<stop offset="1" stop-color="#D25BF7"/>
</linearGradient>
<clipPath id="clip0_37_4091">
<rect width="263" height="54" fill="white"/>
</clipPath>
</defs>
</svg>
